<?xml version="1.0" encoding="utf-8"?>
<!-- Generator: Adobe Illustrator 18.1.1, SVG Export Plug-In . SVG Version: 6.00 Build 0)  -->
<svg version="1.1" id="Layer_2" xmlns="http://www.w3.org/2000/svg" xmlns:xlink="http://www.w3.org/1999/xlink" x="0px" y="0px"
	 viewBox="181 -181 512 512" enable-background="new 181 -181 512 512" xml:space="preserve">
<path d="M603.7-100H270.3c-18.4,0-33.3,14.9-33.3,33.3v217.3c0,18.4,14.9,33.3,33.3,33.3h107.4l-20.4,45c-2.1,4.6-1.7,10,1.1,14.3
	c2.8,4.3,7.5,6.9,12.6,6.9h132c0,0,0,0,0,0c8.3,0,15-6.7,15-15c0-2.5-0.6-4.8-1.7-6.9l-20.1-44.2h107.4c18.4,0,33.3-14.9,33.3-33.3
	V-66.7C637-85.1,622.1-100,603.7-100z M607,150.6c0,1.8-1.5,3.3-3.3,3.3H473h-72H270.3c-1.8,0-3.3-1.5-3.3-3.3V-66.7
	c0-1.8,1.5-3.3,3.3-3.3h333.4c1.8,0,3.3,1.5,3.3,3.3L607,150.6L607,150.6z"/>
</svg>
