<?xml version="1.0" encoding="utf-8"?>
<!-- Generator: Adobe Illustrator 18.1.1, SVG Export Plug-In . SVG Version: 6.00 Build 0)  -->
<svg version="1.1" id="Layer_1" xmlns="http://www.w3.org/2000/svg" xmlns:xlink="http://www.w3.org/1999/xlink" x="0px" y="0px"
	 viewBox="-586.5 389 138.9 23" enable-background="new -586.5 389 138.9 23" xml:space="preserve">
<g>
	<path fill="#101524" d="M-575.1,405.5l-3.4-4l-0.9,0.9v3.1h-2.4v-10.1h2.4v4.5l4-4.5h2.9l-4.5,4.7l4.8,5.4H-575.1z"/>
	<path fill="#101524" d="M-571.1,405.5v-10.1h2.4v10.1H-571.1z"/>
	<path fill="#101524" d="M-558.7,405.5l-5.4-6.6v6.6h-2.4v-10.1h2.5l5.2,6.3v-6.3h2.4v10.1H-558.7z"/>
	<path fill="#101524" d="M-554.7,400.5c0-3.2,2.7-5.2,6-5.2c2.3,0,3.8,1.1,4.6,2.3l-2,1c-0.5-0.7-1.5-1.3-2.7-1.3
		c-2,0-3.5,1.4-3.5,3.3c0,1.9,1.5,3.3,3.5,3.3c1,0,1.9-0.4,2.4-0.8v-1.2h-3v-1.9h5.4v3.9c-1.1,1.1-2.7,1.9-4.8,1.9
		C-552,405.7-554.7,403.7-554.7,400.5z"/>
	<path fill="#101524" d="M-542.1,405.5v-10.1h2.4v8.2h4.7v1.9H-542.1z"/>
	<path fill="#101524" d="M-533.3,405.5v-10.1h7.9v1.9h-5.6v2.1h5.4v1.9h-5.4v2.3h5.6v1.9H-533.3z"/>
	<path fill="#101524" d="M-517.1,405.5l-2.2-3.6h-1.8v3.6h-2.4v-10.1h5.3c2.3,0,3.8,1.4,3.8,3.3c0,1.8-1.2,2.7-2.5,3l2.5,3.8H-517.1
		z M-516.9,398.7c0-0.8-0.7-1.4-1.7-1.4h-2.5v2.7h2.5C-517.6,400.1-516.9,399.5-516.9,398.7z"/>
</g>
<g>
	<path fill="#101524" d="M-504.4,405.5v-10.1h5.9c2.1,0,3.2,1.2,3.2,2.6c0,1.3-0.9,2.1-1.9,2.3c1.2,0.2,2.2,1.2,2.2,2.5
		c0,1.5-1.1,2.7-3.3,2.7H-504.4z M-497.7,398.4c0-0.6-0.5-1.1-1.3-1.1h-3v2.2h3C-498.2,399.5-497.7,399-497.7,398.4z M-497.5,402.5
		c0-0.6-0.5-1.2-1.4-1.2h-3.1v2.3h3.1C-498,403.7-497.5,403.2-497.5,402.5z"/>
	<path fill="#101524" d="M-493.2,405.5v-10.1h7.9v1.9h-5.6v2.1h5.4v1.9h-5.4v2.3h5.6v1.9H-493.2z"/>
	<path fill="#101524" d="M-477.1,405.5l-2.2-3.6h-1.8v3.6h-2.4v-10.1h5.3c2.3,0,3.8,1.4,3.8,3.3c0,1.8-1.2,2.7-2.5,3l2.5,3.8H-477.1
		z M-476.8,398.7c0-0.8-0.7-1.4-1.7-1.4h-2.5v2.7h2.5C-477.6,400.1-476.8,399.5-476.8,398.7z"/>
	<path fill="#101524" d="M-473.1,400.5c0-3.1,2.6-5.2,6-5.2c2.5,0,3.9,1.2,4.7,2.5l-2.1,0.9c-0.5-0.8-1.5-1.5-2.6-1.5
		c-2,0-3.5,1.4-3.5,3.3c0,1.9,1.5,3.3,3.5,3.3c1.2,0,2.2-0.6,2.6-1.5l2.1,0.9c-0.8,1.3-2.2,2.5-4.7,2.5
		C-470.5,405.7-473.1,403.6-473.1,400.5z"/>
	<path fill="#101524" d="M-458.3,405.5v-4.1l-4.3-6h2.7l2.8,4.1l2.8-4.1h2.7l-4.3,6v4.1H-458.3z"/>
</g>
</svg>
